<svg xmlns="http://www.w3.org/2000/svg" viewBox="0 0 512 512" role="img" aria-labelledby="title">
  <title id="title">JAYTRIX app icon</title>
  <rect width="512" height="512" rx="0" fill="#031326"/>
  <circle cx="385" cy="84" r="150" fill="#0B5FFF" opacity=".22"/>
  <circle cx="86" cy="438" r="130" fill="#5EA4FF" opacity=".12"/>
  <g transform="translate(38 31) scale(.86)">
    <path fill="#0B5FFF" d="M153 116h263l-51 67H284l-38 184c-12 60-54 89-126 89H78l25-67h31c25 0 38-11 44-41l34-165H101l52-67Z"/>
    <path fill="#151A21" stroke="#F8FAFC" stroke-linejoin="round" stroke-width="18" d="M310 199h142l-53 68h-82l-39 189h-91l74-257h49Z"/>
    <g fill="#F8FAFC">
      <rect x="104" y="204" width="16" height="16" rx="3"/>
      <rect x="138" y="185" width="20" height="20" rx="4"/>
      <rect x="174" y="214" width="25" height="25" rx="5"/>
      <rect x="133" y="247" width="18" height="18" rx="4"/>
      <rect x="168" y="274" width="17" height="17" rx="4"/>
    </g>
  </g>
</svg>
